<?xml version="1.0" encoding="UTF-8"?><svg id="Camada_1" xmlns="http://www.w3.org/2000/svg" xmlns:xlink="http://www.w3.org/1999/xlink" viewBox="0 0 595.28 593.35"><defs><style>.cls-1{fill:none;}.cls-2{clip-path:url(#clippath);}.cls-3{fill:#f2f2f2;}.cls-4{fill:#e6e6e6;}.cls-5{fill:#f6b6b8;}.cls-6{fill:#f6b4b7;}.cls-7{fill:#fff;}.cls-8{fill:#e5e4e4;}.cls-9{fill:#a1616a;}.cls-10{fill:#309795;}.cls-11{fill:#cbcaca;}.cls-12{fill:#403d56;}.cls-13{fill:#2f2f41;}.cls-14{fill:#61bfbc;}.cls-15{opacity:.2;}.cls-16{isolation:isolate;opacity:.3;}</style><clipPath id="clippath"><rect class="cls-1" x="115.64" y="56.4" width="449.27" height="501.48"/></clipPath></defs><path class="cls-10" d="M516.09,522.01c-45.85,16.41-118.24-19.38-186.12-19.35-68.42,.34-131.89,36.62-188.64,29.16-56.64-7.89-106.26-58.99-128.18-119.98-21.61-60.45-15.94-130.9,12.3-185.28,28.55-53.84,79.78-92.04,129.16-128.46C204.41,61.81,252.61,26.44,311.26,9.82c58.54-16.2,128.09-13.96,177.59,18.89,49.07,32.74,78.22,95.66,93.51,157.6,14.86,61.83,16.18,123.22,7.63,187.43-9.09,64.52-28.16,132.29-73.89,148.28Z"/><circle class="cls-14" cx="37.31" cy="108.88" r="28.9"/><circle class="cls-14" cx="97.01" cy="80.36" r="14.07"/><circle class="cls-14" cx="25.9" cy="172.01" r="6.08"/><circle class="cls-14" cx="214.89" cy="583.84" r="9.51"/><g class="cls-2"><g><path class="cls-4" d="M543.78,529.08c-2.8,.98-5.8,1.23-8.73,.71-2.92-.52-5.67-1.77-7.96-3.66-5.85-4.91-7.68-12.99-9.17-20.48l-4.41-22.14,9.24,6.36c6.64,4.57,13.43,9.29,18.03,15.92,4.6,6.62,6.61,15.67,2.91,22.83"/><path class="cls-3" d="M542.99,555.88c.94-6.81,1.89-13.71,1.24-20.58-.59-6.11-2.45-12.09-6.24-16.98-2.02-2.59-4.47-4.81-7.25-6.56-.72-.46-1.39,.69-.67,1.15,4.81,3.04,8.52,7.52,10.62,12.82,2.31,5.88,2.68,12.29,2.28,18.53-.24,3.78-.75,7.53-1.26,11.28-.05,.17-.02,.35,.07,.5,.08,.15,.23,.27,.4,.31,.17,.05,.35,.02,.5-.06,.15-.09,.27-.23,.31-.4h0Z"/><path class="cls-7" d="M509.52,442.79H123.13V56.4H509.52V442.79Z"/><path class="cls-8" d="M509.52,442.79H123.13V56.4H509.52V442.79Zm-380.68-5.71H503.81V62.11H128.84V437.08Z"/><path class="cls-8" d="M441.07,116.85h-167.32v5.21h167.32v-5.21Z"/><path class="cls-8" d="M441.07,130.41h-167.32v5.21h167.32v-5.21Z"/><path class="cls-8" d="M441.07,143.96h-167.32v5.21h167.32v-5.21Z"/><path class="cls-8" d="M441.07,233.22h-167.32v5.21h167.32v-5.21Z"/><path class="cls-8" d="M441.07,246.77h-167.32v5.21h167.32v-5.21Z"/><path class="cls-8" d="M441.07,260.32h-167.32v5.21h167.32v-5.21Z"/><path class="cls-8" d="M441.07,349.58h-167.32v5.21h167.32v-5.21Z"/><path class="cls-8" d="M441.07,363.13h-167.32v5.21h167.32v-5.21Z"/><path class="cls-8" d="M441.07,376.69h-167.32v5.21h167.32v-5.21Z"/><path class="cls-12" d="M206.77,158.38c-2.86-1.51-5.84-2.76-8.92-3.75l-.39-4.34-15.9-1.71-2.02,5.55-5.71,2.14c-.2,.08-.4,.18-.58,.3h0c-.32,.22-.59,.49-.8,.82-.21,.32-.35,.69-.41,1.07-.06,.38-.05,.76,.04,1.13l.3,1.24c.43,.26,.88,.51,1.33,.74l.28,.14c.65,.34,1.31,.66,2,.95,.14,.06,.29,.12,.43,.18,.01,0,.02,0,.03,.01,.32,.13,.64,.26,.97,.38,1.07,.41,2.16,.76,3.27,1.05,2.83,.75,5.74,1.14,8.67,1.13,1.07,0,2.12-.05,3.17-.15,2.39-.22,4.74-.7,7.02-1.42,0,0,.01,0,.02,0,1.44-.46,2.85-1.02,4.22-1.67,0,0,.02,0,.02-.01,.31-.14,.6-.3,.91-.45l.14-.07c.24-.13,.48-.25,.72-.39,.6-.33,1.19-.68,1.78-1.06,.16-.1,.32-.2,.48-.31,.23-.15,.46-.31,.68-.47-.56-.36-1.15-.71-1.75-1.03Z"/><path class="cls-12" d="M176.92,161.05l-1-4.49h-2.6s-.05,0-.08,0h0c-.93,.08-1.83,.39-2.62,.91-.53,.34-1,.76-1.4,1.25,.77,.59,1.58,1.13,2.4,1.65l.04,.02c.23,.14,.48,.29,.72,.43,.43,.26,.88,.51,1.33,.74l.28,.14c.65,.34,1.32,.66,2,.95,.14,.06,.29,.12,.43,.18,.01,0,.02,0,.03,.01,.32,.13,.64,.26,.97,.38l-.49-2.18Z"/><path class="cls-5" d="M188.88,145.83c6.33,0,11.45-5.13,11.45-11.45s-5.13-11.45-11.45-11.45-11.45,5.13-11.45,11.45,5.13,11.45,11.45,11.45Z"/><path class="cls-13" d="M181.19,128.8c1.19,1.4,3.19,1.8,5.04,1.96,4.33,.24,8.67-.12,12.9-1.05,.26,2.54-.45,5.28,1.04,7.37,.7-2.53,1.11-5.13,1.22-7.76,.11-1.13-.04-2.26-.43-3.32-.21-.53-.57-.99-1.03-1.33-.46-.34-1.01-.54-1.58-.59,.85-.65,1.85-1.07,2.91-1.24l-3.64-1.83,.93-.96-6.58-.4,1.91-1.21c-2.87-.39-5.77-.49-8.66-.27-1.35,0-2.67,.37-3.83,1.07-1.09,.78-1.72,2.32-1.04,3.46-.84,.14-1.64,.49-2.31,1.02-.67,.53-1.19,1.23-1.52,2.02-.41,1.26-.51,2.6-.29,3.9,.25,2.09,.73,4.15,1.45,6.14l3.51-6.97Z"/><path class="cls-12" d="M221.09,121.96c-1.61-4.62-4.2-8.83-7.6-12.34-3.4-3.51-7.53-6.24-12.09-7.99-4.56-1.75-9.46-2.49-14.33-2.16-4.88,.33-9.62,1.72-13.91,4.08-4.28,2.36-8,5.62-10.9,9.56-2.89,3.94-4.89,8.46-5.86,13.26-.97,4.79-.88,9.74,.27,14.49,1.14,4.75,3.31,9.2,6.34,13.03,.3,.38,.62,.76,.94,1.13,.02,.02,.04,.05,.07,.07,.79,.91,1.62,1.77,2.5,2.58,.23,.21,.47,.43,.71,.63,.46,.41,.93,.8,1.42,1.18,.19,.15,.38,.3,.58,.45,.77,.58,1.58,1.13,2.4,1.65l.04,.02c.23,.15,.48,.29,.72,.43,.43,.26,.88,.51,1.33,.74l.28,.15c.65,.34,1.32,.66,2,.95,.14,.06,.29,.12,.43,.18,.01,0,.02,0,.03,.01,.32,.13,.64,.26,.97,.38,1.07,.41,2.16,.76,3.27,1.05,2.83,.75,5.74,1.14,8.67,1.13,1.07,0,2.12-.05,3.17-.15,2.39-.22,4.74-.7,7.02-1.42,0,0,.01,0,.02,0,1.44-.46,2.85-1.02,4.22-1.67,0,0,.02,0,.02-.01,.31-.15,.6-.3,.91-.45l.15-.07c.24-.13,.48-.25,.72-.39,.6-.33,1.19-.68,1.78-1.06,.16-.1,.32-.2,.48-.31,.23-.15,.46-.31,.68-.47,.3-.2,.59-.42,.88-.63,.09-.07,.19-.13,.28-.2,5.65-4.29,9.8-10.26,11.85-17.05,2.05-6.79,1.9-14.06-.44-20.76h0Zm-12.53,36.35c-.2,.16-.4,.31-.61,.45-.2,.15-.4,.3-.6,.43-.17,.13-.35,.25-.53,.36l-.05,.04c-.13,.09-.27,.17-.4,.26-.5,.31-1.01,.62-1.52,.91l-.16,.09c-.23,.13-.46,.25-.69,.37-.03,.02-.07,.03-.1,.05l-.04,.02c-.29,.15-.59,.3-.88,.43-1.14,.55-2.32,1.03-3.52,1.42-.16,.05-.31,.11-.47,.16-2.16,.69-4.39,1.14-6.65,1.35-.99,.09-1.99,.14-3,.14-2.77,0-5.53-.36-8.2-1.07-1.37-.36-2.72-.81-4.02-1.36-.07-.03-.14-.05-.21-.08-.07-.03-.14-.05-.21-.08-.07-.03-.14-.06-.21-.1-.57-.25-1.13-.52-1.68-.8l-.27-.14c-.67-.35-1.33-.72-1.97-1.12-.19-.11-.38-.24-.56-.36-.05-.03-.09-.06-.14-.09-.43-.28-.86-.58-1.27-.89-.28-.21-.57-.42-.84-.64-.46-.35-.91-.72-1.35-1.11-.23-.19-.45-.4-.67-.6-.86-.79-1.67-1.63-2.43-2.51-.25-.29-.5-.58-.74-.88-.05-.06-.1-.12-.15-.19-3.92-4.95-6.28-10.95-6.77-17.24-.5-6.29,.9-12.59,3.99-18.09,3.1-5.5,7.76-9.95,13.4-12.79,5.64-2.84,11.99-3.93,18.26-3.14,6.26,.79,12.15,3.43,16.9,7.58,4.76,4.15,8.17,9.62,9.8,15.72,1.63,6.1,1.42,12.54-.63,18.51-2.04,5.97-5.82,11.2-10.84,15.02h0Z"/><path class="cls-7" d="M221.09,238.33c-1.61-4.62-4.2-8.83-7.6-12.34-3.4-3.51-7.53-6.24-12.09-7.99-4.56-1.75-9.46-2.49-14.33-2.16-4.88,.33-9.62,1.72-13.91,4.08-4.28,2.35-8,5.62-10.9,9.56s-4.89,8.46-5.86,13.25c-.97,4.79-.88,9.74,.27,14.49,1.14,4.75,3.31,9.2,6.34,13.03,.3,.38,.62,.76,.94,1.13,.02,.02,.04,.05,.07,.07,.79,.91,1.62,1.77,2.5,2.58,.23,.21,.47,.43,.71,.63,.46,.41,.93,.8,1.42,1.18,.95,.75,1.95,1.45,2.98,2.09l.04,.02c.67,.42,1.35,.8,2.05,1.17l.28,.14c.65,.34,1.31,.66,2,.95,.14,.06,.29,.12,.43,.18,.01,0,.02,0,.03,.01,1.38,.57,2.79,1.05,4.24,1.43,2.83,.75,5.74,1.14,8.67,1.13,1.07,0,2.12-.05,3.17-.15,2.38-.22,4.74-.7,7.02-1.42,0,0,.01,0,.02,0,1.44-.46,2.85-1.02,4.22-1.67,0,0,.02,0,.02-.01,.31-.14,.6-.3,.91-.45l.15-.07c.24-.13,.48-.25,.72-.39,.6-.33,1.19-.68,1.78-1.06,.16-.1,.32-.2,.48-.31,.53-.35,1.06-.72,1.56-1.1,.09-.07,.19-.13,.28-.21,5.65-4.29,9.8-10.26,11.85-17.05,2.05-6.79,1.9-14.06-.44-20.76h0Z"/><path class="cls-13" d="M200.44,263.23c2.78,0,5.04-2.25,5.04-5.04s-2.25-5.04-5.04-5.04-5.04,2.26-5.04,5.04,2.25,5.04,5.04,5.04Z"/><path class="cls-13" d="M201.84,253.29c.87,0,1.73,.23,2.49,.66,.76,.43,1.39,1.05,1.84,1.8,.45,.75,.69,1.6,.71,2.47,.02,.87-.19,1.73-.6,2.5,.44-.55,.75-1.18,.93-1.85,.18-.68,.22-1.38,.11-2.07-.11-.69-.36-1.35-.74-1.94-.38-.59-.87-1.09-1.46-1.48-.58-.39-1.24-.65-1.93-.76-.69-.12-1.4-.09-2.07,.08-.68,.17-1.31,.48-1.87,.91-.55,.43-1.01,.97-1.34,1.58,.47-.59,1.07-1.07,1.75-1.4,.68-.33,1.43-.5,2.18-.5h0Z"/><path class="cls-13" d="M191.03,258.18c8.17,0,14.8-6.63,14.8-14.8s-6.63-14.8-14.8-14.8-14.8,6.63-14.8,14.8,6.63,14.8,14.8,14.8Z"/><path class="cls-13" d="M179.41,234.2c2.55-2.87,6.11-4.63,9.94-4.92,3.83-.29,7.62,.92,10.57,3.37-.12-.11-.24-.23-.37-.34-2.92-2.62-6.77-3.97-10.69-3.75-3.92,.22-7.59,1.98-10.21,4.9-2.62,2.92-3.97,6.77-3.75,10.68,.22,3.92,1.98,7.59,4.9,10.21,.03,.03,.06,.05,.08,.08,.13,.11,.25,.22,.38,.32-2.78-2.64-4.42-6.27-4.58-10.1-.16-3.83,1.17-7.58,3.72-10.45h0Z"/><path class="cls-9" d="M190.9,258.06c5.26,0,9.53-4.27,9.53-9.53s-4.27-9.53-9.53-9.53-9.53,4.27-9.53,9.53,4.27,9.53,9.53,9.53Z"/><path class="cls-10" d="M207.95,273.36v3.2c-.58,.37-1.18,.72-1.78,1.06-.24,.13-.48,.26-.72,.39l-.14,.07c-.3,.15-.6,.31-.91,.45,0,0-.02,0-.02,.01-1.37,.65-2.78,1.21-4.22,1.67,0,0-.01,0-.02,0-2.28,.72-4.64,1.2-7.02,1.42-1.04,.1-2.1,.15-3.17,.15-2.93,0-5.84-.38-8.67-1.13-1.44-.38-2.86-.86-4.23-1.43-.01,0-.02,0-.03-.01-.14-.06-.29-.12-.43-.18-.68-.3-1.35-.62-2-.95l-.28-.14c-.69-.37-1.38-.75-2.05-1.17l-.04-.02c-1.03-.64-2.03-1.34-2.98-2.09-.49-.37-.96-.77-1.42-1.18-.24-.21-.48-.42-.71-.63-.88-.81-1.72-1.68-2.5-2.58,.1-.63,.26-1.25,.46-1.85h0c.04-.11,.08-.21,.13-.31,.03-.09,.07-.17,.11-.25,1.08-2.02,3.03-2.52,5.46-2.63,1.37-.06,2.88,0,4.48-.01,.84,0,1.72-.04,2.59-.11,5.52-.5,4.52-3.76,4.77-5.51,.25-1.7,1.78-.23,1.88-.13h0c3.12,1.47,6.58,2.07,10.02,1.76,.59-.07,1.18-.11,1.77-.13,1.56-.02,1.22,.43,.68,.8-.26,.17-.53,.32-.81,.46,0,0-.25,1.51-.5,3.76-.24,2.16,3.9,3.17,4.24,3.25,0,0,.02,0,.02,0,1.51-.39,3.1-.35,4.59,.12h0c.85,.31,1.61,.83,2.21,1.51,.6,.68,1.02,1.5,1.22,2.38h0Z"/><path class="cls-13" d="M177.11,277.24c0,.45-.01,.87-.03,1.28,0,.24-.02,.48-.03,.7-.01,0-.02,0-.03-.01-.14-.06-.29-.12-.43-.18-.68-.3-1.35-.62-2-.95l-.28-.14c-.69-.37-1.38-.75-2.05-1.17,.02-.21,.05-.42,.08-.63,.07-.46,.12-.93,.16-1.4,.24-3.26-.35-6.53-1.72-9.51h0c-.12-.25-.19-.38-.19-.38,0,0,1.76-1.51,4.26,0,.16,.09,.3,.22,.42,.36,1.51,1.78,1.92,7.76,1.85,12.04Z"/><path class="cls-13" d="M204.5,276.42c-.02,.68-.06,1.38-.1,2.1h0s-.02,.01-.02,.02c-1.37,.65-2.77,1.21-4.22,1.67,0,0-.01,0-.02,0l-.07-1.7v-.22s-.33-8.25-.33-8.25c0-.19,.02-.37,.09-.55,.07-.18,.17-.34,.3-.47,.13-.14,.28-.24,.46-.32,.17-.07,.36-.11,.54-.11h3.06c.15,0,.26,.31,.33,.86h0c.15,2.32,.14,4.65-.02,6.96h0Z"/><path class="cls-13" d="M182.75,236.61v9.53h2.21l2.81-3.01-.38,3.01h9.76l-.6-3.01,1.21,3.01h1.56v-9.53h-16.55Z"/><path class="cls-9" d="M181.24,247.9c.42,0,.75-.62,.75-1.38s-.34-1.38-.75-1.38-.75,.62-.75,1.38,.34,1.38,.75,1.38Z"/><path class="cls-9" d="M200.56,247.9c.42,0,.75-.62,.75-1.38s-.34-1.38-.75-1.38-.75,.62-.75,1.38,.34,1.38,.75,1.38Z"/><path class="cls-10" d="M210,275.14c-.51,.38-1.03,.75-1.56,1.1-.16,.11-.32,.21-.48,.31-.59,.37-1.18,.72-1.78,1.06-.24,.13-.48,.26-.72,.39v-6.65s.97,.77,2.5,2.06c.19,.16,.39,.33,.6,.51,.45,.37,.93,.78,1.44,1.22Z"/><path class="cls-12" d="M221.09,238.33c-1.61-4.62-4.2-8.83-7.6-12.34-3.4-3.51-7.53-6.24-12.09-7.99-4.56-1.75-9.46-2.49-14.33-2.16-4.88,.33-9.62,1.72-13.91,4.08-4.28,2.35-8,5.62-10.9,9.56s-4.89,8.46-5.86,13.25c-.97,4.79-.88,9.74,.27,14.49,1.14,4.75,3.31,9.2,6.34,13.03,.3,.38,.62,.76,.94,1.13,.02,.02,.04,.05,.07,.07,.79,.91,1.62,1.77,2.5,2.58,.23,.21,.47,.43,.71,.63,.46,.41,.93,.8,1.42,1.18,.95,.75,1.95,1.45,2.98,2.09l.04,.02c.67,.42,1.35,.8,2.05,1.17l.28,.14c.65,.34,1.31,.66,2,.95,.14,.06,.29,.12,.43,.18,.01,0,.02,0,.03,.01,1.38,.57,2.79,1.05,4.24,1.43,2.83,.75,5.74,1.14,8.67,1.13,1.07,0,2.12-.05,3.17-.15,2.38-.22,4.74-.7,7.02-1.42,0,0,.01,0,.02,0,1.44-.46,2.85-1.02,4.22-1.67,0,0,.02,0,.02-.01,.31-.14,.6-.3,.91-.45l.15-.07c.24-.13,.48-.25,.72-.39,.6-.33,1.19-.68,1.78-1.06,.16-.1,.32-.2,.48-.31,.53-.35,1.06-.72,1.56-1.1,.09-.07,.19-.13,.28-.21,5.65-4.29,9.8-10.26,11.85-17.05,2.05-6.79,1.9-14.06-.44-20.76h0Zm-12.53,36.35c-.2,.16-.4,.31-.61,.45-.2,.15-.4,.3-.6,.43-.17,.13-.35,.25-.53,.36-.15,.1-.3,.2-.45,.3-.5,.31-1.01,.62-1.52,.91l-.16,.09c-.23,.13-.46,.25-.69,.37-.03,.02-.07,.03-.1,.05l-.04,.02c-.29,.15-.58,.3-.88,.43-1.14,.55-2.32,1.03-3.52,1.42-.16,.05-.31,.11-.47,.16-2.16,.69-4.39,1.14-6.65,1.35-.99,.09-1.99,.14-3,.14-2.77,0-5.53-.36-8.2-1.07-1.37-.36-2.72-.81-4.02-1.36-.14-.05-.28-.11-.41-.17-.07-.03-.14-.06-.21-.1-.57-.25-1.13-.52-1.68-.8l-.27-.14c-.67-.35-1.33-.72-1.97-1.12-.24-.14-.47-.3-.7-.45-.72-.48-1.43-.99-2.12-1.53-.46-.35-.91-.72-1.35-1.11-.23-.19-.45-.4-.67-.6-.85-.79-1.66-1.63-2.43-2.51-.25-.29-.5-.58-.74-.88-.05-.06-.1-.12-.15-.19-3.92-4.95-6.28-10.95-6.77-17.24s.9-12.59,3.99-18.09c3.1-5.5,7.76-9.95,13.4-12.79,5.64-2.84,11.99-3.93,18.26-3.14,6.26,.79,12.15,3.43,16.9,7.58,4.76,4.15,8.17,9.62,9.8,15.72,1.63,6.1,1.42,12.54-.63,18.51-2.04,5.97-5.82,11.2-10.84,15.02h0Z"/><path class="cls-13" d="M189.54,380.85c7.27,0,13.17-5.9,13.17-13.17s-5.9-13.17-13.17-13.17-13.17,5.9-13.17,13.17,5.9,13.17,13.17,13.17Z"/><path class="cls-13" d="M179.26,360.58c2.13-2.13,2.56-5.15,.96-6.74-1.6-1.6-4.61-1.16-6.74,.96-2.13,2.13-2.56,5.15-.96,6.74,1.6,1.6,4.62,1.17,6.74-.96Z"/><path class="cls-13" d="M203.26,356.4c.89-2.08-.64-4.72-3.41-5.9-2.77-1.18-5.73-.46-6.62,1.62s.64,4.72,3.41,5.9c2.77,1.18,5.73,.46,6.62-1.62Z"/><path class="cls-11" d="M205.29,393.22l-1.55-2.44c-.66-1.47-1.87-2.62-3.38-3.2-1.5-.58-3.18-.53-4.65,.12-1.47,.65-2.63,1.86-3.21,3.37-.58,1.5-.55,3.17,.1,4.65l.44,1.58,.5,1.79c2.03-.26,4.04-.69,5.99-1.31,0,0,.01,0,.02,0,1.45-.46,2.86-1.02,4.22-1.67,0,0,.02,0,.02-.02,.3-.14,.6-.3,.91-.45,.05-.02,.1-.05,.14-.08,.24-.12,.49-.25,.72-.38,.24-.13,.48-.27,.71-.41l-.99-1.55Z"/><path class="cls-6" d="M189.95,382c6.17,0,11.18-5,11.18-11.18s-5-11.18-11.18-11.18-11.18,5-11.18,11.18,5,11.18,11.18,11.18Z"/><path class="cls-11" d="M206.1,392.74c-1.23-2.05-2.76-3.91-4.54-5.51-1.22-1.09-2.79-1.69-4.43-1.69h-15.74c-.91,0-1.8,.19-2.64,.55-.83,.36-1.58,.89-2.2,1.55-.62,.66-1.1,1.44-1.41,2.3-.31,.85-.44,1.76-.38,2.67,.03,.51,.13,1.02,.27,1.51,.11,.36,.25,.7,.42,1.03l.78,1.55c.06,.02,.12,.05,.18,.08,.02,0,.02,0,.03,.02,.32,.13,.64,.26,.97,.38,1.07,.41,2.16,.76,3.27,1.05,1.78,.48,3.61,.81,5.44,.98,1.07,.1,2.15,.15,3.23,.15s2.12-.05,3.17-.15c.34-.03,.68-.07,1.03-.11,2.03-.26,4.04-.69,5.99-1.31,0,0,.01,0,.02,0,1.44-.46,2.86-1.02,4.22-1.67,0,0,.01,0,.02-.02,.3-.14,.6-.3,.91-.45,.05-.02,.1-.05,.14-.08,.24-.12,.49-.25,.72-.38,.24-.13,.48-.27,.71-.41,.24-.13,.47-.27,.71-.42-.29-.57-.59-1.1-.89-1.61Z"/><path class="cls-11" d="M184.24,387.59c-1.46-.68-3.12-.76-4.64-.21-1.51,.54-2.75,1.67-3.44,3.12l-1.4,2.11-.67,1.01-1.02,1.54c.21,.11,.42,.23,.63,.34l.28,.14c.65,.33,1.32,.65,2,.95,.08,.04,.16,.07,.24,.11,.06,.02,.12,.05,.18,.08,.02,0,.02,0,.03,.02,.32,.13,.64,.26,.97,.38,1.07,.41,2.16,.76,3.27,1.05,1.78,.48,3.61,.81,5.44,.98l.53-1.8,.52-1.72c.68-1.46,.76-3.14,.2-4.65-.55-1.52-1.68-2.75-3.14-3.44h0Z"/><path class="cls-13" d="M178.21,363.79c2.55,1.76,5.58,2.7,8.69,2.68-1.11,.77-2.37,1.29-3.69,1.52,4.12,.88,8.39,.91,12.52,.07,.92-.15,1.81-.45,2.62-.9,.41-.23,.76-.54,1.04-.91,.28-.37,.48-.8,.58-1.25,.28-1.57-.95-3-2.22-3.96-1.95-1.45-4.19-2.45-6.57-2.92-2.38-.48-4.83-.42-7.19,.17-1.57,.32-2.99,1.12-4.07,2.3-.52,.6-.84,1.35-.9,2.15-.06,.79,.13,1.59,.56,2.26l-1.37-1.21Z"/><path class="cls-12" d="M221.09,354.69c-1.61-4.62-4.2-8.83-7.6-12.34-3.4-3.51-7.53-6.24-12.09-7.99-4.56-1.75-9.46-2.49-14.33-2.16-4.88,.33-9.62,1.72-13.91,4.08s-8,5.62-10.9,9.56c-2.89,3.94-4.89,8.46-5.86,13.26-.97,4.79-.87,9.74,.27,14.49,1.14,4.75,3.31,9.2,6.34,13.03,.3,.38,.62,.76,.94,1.13,.02,.03,.04,.05,.06,.08,.79,.91,1.63,1.77,2.51,2.58,.23,.21,.46,.43,.71,.64,.46,.41,.93,.8,1.42,1.17,.19,.15,.38,.3,.58,.45,.77,.59,1.57,1.13,2.4,1.65,.01,0,.03,0,.04,.02,.24,.14,.48,.29,.72,.43,.23,.14,.46,.27,.69,.4,.21,.11,.42,.23,.63,.34l.28,.14c.65,.33,1.32,.65,2,.95,.08,.04,.16,.07,.24,.11,.06,.02,.12,.05,.18,.08,.02,0,.02,0,.03,.02,.32,.13,.64,.26,.97,.38,1.07,.41,2.16,.76,3.27,1.05,1.78,.48,3.61,.81,5.45,.98,1.07,.1,2.14,.15,3.22,.15s2.12-.05,3.17-.15c.34-.03,.68-.07,1.03-.11,2.03-.26,4.04-.69,5.99-1.31,0,0,.01,0,.02,0,1.44-.46,2.86-1.02,4.22-1.67,0,0,.01,0,.02-.02,.3-.14,.6-.3,.91-.45,.05-.02,.1-.05,.14-.08,.24-.12,.49-.25,.72-.38,.24-.13,.48-.27,.71-.41,.24-.13,.47-.27,.71-.42,.12-.08,.24-.15,.37-.23,.17-.1,.32-.2,.49-.31,.23-.14,.46-.3,.68-.46,.3-.21,.59-.42,.88-.64,.1-.06,.19-.13,.28-.21,5.65-4.29,9.79-10.26,11.84-17.05,2.05-6.79,1.9-14.06-.43-20.76h0Zm-12.53,36.35c-.2,.16-.4,.31-.61,.45-.21,.15-.4,.3-.61,.43-.17,.12-.35,.24-.53,.36-.02,.01-.03,.03-.05,.04-.13,.09-.27,.17-.4,.26-.09,.05-.18,.11-.27,.17-.27,.17-.53,.33-.81,.48-.14,.09-.3,.17-.44,.26-.05,.03-.11,.06-.16,.09-.24,.13-.46,.24-.69,.37-.03,.02-.07,.03-.09,.05-.01,0-.03,0-.04,.02-.29,.15-.59,.3-.88,.43-1.14,.55-2.32,1.02-3.52,1.42-.15,.05-.31,.11-.46,.16-1.94,.62-3.93,1.04-5.96,1.28-.23,.03-.46,.05-.7,.08-.99,.09-1.99,.14-3,.14-.9,0-1.8-.04-2.69-.11-1.86-.16-3.7-.48-5.51-.96-1.37-.36-2.72-.82-4.02-1.37-.07-.03-.14-.05-.21-.08-.08-.03-.14-.05-.21-.08-.08-.03-.14-.06-.21-.1-.49-.21-.99-.45-1.47-.69-.07-.04-.14-.07-.21-.11l-.27-.14c-.16-.08-.32-.17-.47-.25-.51-.27-1.01-.57-1.5-.87-.18-.11-.38-.24-.56-.36l-.14-.09c-.43-.29-.85-.58-1.27-.89-.28-.21-.57-.42-.84-.64-.46-.35-.91-.72-1.35-1.11-.23-.19-.46-.4-.67-.6-.86-.79-1.67-1.63-2.43-2.51-.25-.29-.5-.58-.74-.88-.05-.06-.1-.12-.15-.19-3.92-4.95-6.28-10.95-6.77-17.24-.5-6.29,.89-12.59,3.99-18.09,3.1-5.5,7.76-9.95,13.4-12.79,5.64-2.84,12-3.93,18.26-3.14,6.26,.79,12.15,3.43,16.91,7.58,4.76,4.15,8.17,9.62,9.81,15.72,1.64,6.1,1.42,12.54-.63,18.51-2.04,5.97-5.82,11.2-10.85,15.02h0Z"/><path class="cls-12" d="M245.58,190.48c-11.7-9.87-26.02-16.14-41.22-18.02-15.2-1.88-30.61,.69-44.37,7.41-13.76,6.72-25.27,17.29-33.13,30.43-7.86,13.14-11.73,28.28-11.15,43.58,.59,15.3,5.61,30.1,14.46,42.6,8.85,12.5,21.13,22.16,35.37,27.8,14.24,5.64,29.8,7.03,44.81,3.98,15.01-3.04,28.81-10.38,39.72-21.13l96.89,81.76c1.47,1.24,3.38,1.84,5.3,1.68,1.92-.16,3.7-1.08,4.94-2.55,1.24-1.47,1.85-3.38,1.7-5.3-.16-1.92-1.07-3.7-2.54-4.95h-.01s-96.89-81.77-96.89-81.77c11.26-16.15,16.07-35.93,13.51-55.45-2.57-19.52-12.33-37.38-27.38-50.08h0Zm-6.25,97.66c-7.55,8.95-17.58,15.45-28.83,18.7-11.25,3.24-23.2,3.08-34.36-.47-11.15-3.55-21-10.33-28.31-19.48s-11.73-20.26-12.71-31.92c-.99-11.66,1.5-23.36,7.16-33.6,5.66-10.25,14.23-18.59,24.63-23.96,10.4-5.38,22.16-7.55,33.79-6.24,11.63,1.31,22.62,6.03,31.56,13.58h0c12,10.12,19.48,24.6,20.8,40.24,1.32,15.64-3.62,31.17-13.74,43.16h0Z"/><path class="cls-16" d="M155.94,295.21c-11.35-9.58-18.69-23.08-20.55-37.82-1.86-14.74,1.89-29.64,10.51-41.74-1.13,1.14-2.23,2.33-3.28,3.58-5.01,5.94-8.8,12.81-11.16,20.21-2.36,7.41-3.23,15.2-2.58,22.95,.66,7.74,2.83,15.28,6.4,22.19,3.57,6.9,8.46,13.04,14.4,18.05,5.94,5.01,12.81,8.8,20.21,11.16,7.41,2.36,15.2,3.23,22.95,2.58,7.74-.66,15.28-2.83,22.19-6.4,6.9-3.57,13.04-8.46,18.05-14.4,1.05-1.25,2.05-2.53,2.98-3.84-10.48,10.53-24.54,16.73-39.38,17.38-14.84,.64-29.38-4.31-40.74-13.89Z"/><path class="cls-6" d="M440.92,391.96c.76-.92,1.3-2,1.6-3.16,.3-1.16,.33-2.37,.11-3.54-.22-1.17-.7-2.28-1.4-3.25-.7-.97-1.6-1.77-2.64-2.36l-17.66-72.29-12.88,4.11,19.07,71.8c-.86,1.82-1.03,3.89-.47,5.82,.56,1.93,1.81,3.59,3.51,4.66,1.7,1.07,3.74,1.48,5.72,1.15,1.98-.33,3.78-1.38,5.04-2.94h0Z"/><path class="cls-12" d="M431.79,345.72l-9.42,8.12-13.17,11.36-5.82-29.77-.61-3.1-.48-2.46,13.35-23.25,11.13,.64,.76,.05,.02,.17,.17,1.56,2.28,20.52,.05,.5,1.73,15.67Z"/><path class="cls-6" d="M370.24,547.77h-9.32l-4.44-35.96h13.76s0,35.96,0,35.96Z"/><path class="cls-13" d="M372.62,556.81h-30.07v-.38c0-3.1,1.23-6.08,3.43-8.27,2.19-2.2,5.17-3.43,8.27-3.43h18.36v12.09Z"/><path class="cls-6" d="M467.6,548.53h-9.32l-4.44-35.96h13.76s0,35.96,0,35.96Z"/><path class="cls-13" d="M469.97,557.57h-30.07v-.38c0-3.1,1.23-6.08,3.43-8.27,2.19-2.2,5.17-3.43,8.27-3.43h18.36v12.09Z"/><path class="cls-13" d="M475.05,534.22l-25.1,3.8-36.51-123.57-38.78,124.34-28.14-3.8,36.51-144.5v-11.41l4.94-17.11-.52-4.63-3.6-32.39-1.56-14.05-.1-.91c-.09-.76,.12-1.53,.57-2.15,.45-.62,1.11-1.05,1.86-1.21h0l11.71-2.46h19.14l11.29,3.11,.78,.21,.35,.1-.17,1.46-2.65,22.19-.14,1.22-2.56,21.39-.56,4.69c22.06,15.97,22.82,31.94,22.82,31.94l30.42,143.74Z"/><path class="cls-6" d="M403.59,294.53c10.32,0,18.68-8.36,18.68-18.68s-8.36-18.68-18.68-18.68-18.68,8.36-18.68,18.68,8.36,18.68,18.68,18.68Z"/><path class="cls-12" d="M423.21,354.24l-36.95,4.83,.69,5.28,36.95-4.83-.69-5.28Z"/><path class="cls-6" d="M336.69,360.66c.35,.23,.69,.48,1,.77l36.55-9.32,2.49-8.82,13.8,2.02-2.9,16.04c-.23,1.3-.88,2.48-1.85,3.38-.97,.9-2.19,1.45-3.5,1.59l-42.68,4.49c-.7,1.46-1.82,2.68-3.23,3.49-1.4,.81-3.02,1.17-4.64,1.04-1.62-.13-3.15-.75-4.41-1.78-1.25-1.03-2.17-2.41-2.61-3.97-.45-1.56-.41-3.22,.11-4.75s1.49-2.88,2.79-3.85c1.3-.97,2.86-1.52,4.48-1.58,1.62-.06,3.22,.37,4.59,1.25h0Z"/><path class="cls-12" d="M392.91,311.38l-6.46-4.94c-1.75-.66-4.14,1.22-4.56,3.04l-9.13,37.27,19.01,13.69,2.66-4.18-1.52-44.87Z"/><g class="cls-15"><path d="M430,329.55c-1.61,.64-3.26,1.2-4.93,1.67-.53,.16-1.08,.31-1.62,.46-3.56,.99-7.22,1.58-10.91,1.76-1.59,.07-3.18,.02-4.76-.13-1.7-.17-3.38-.5-5.01-.99-.05-.02-.11-.03-.17-.05-3.4-.97-6.52-2.74-9.09-5.16-.57-.56-1.11-1.16-1.6-1.79-1.42-1.74-2.46-3.76-3.06-5.92-.6-2.16-.74-4.43-.41-6.65,.06-.4,.15-.8,.26-1.19,.29-1.07,.67-2.11,1.13-3.12,.21-.47,.43-.94,.68-1.39l8.59-2.91h16.37l11.29,3.11,.76,.05,.02,.17,.35,.1-.17,1.46,2.28,20.52Z"/></g><path class="cls-13" d="M389.28,260.39c-3.49-.43-7.33-.13-10.05,2.1-2.72,2.23-3.6,6.87-1.02,9.26,2.28,2.12,5.85,1.62,8.91,2.23,2.63,.59,4.99,2.05,6.7,4.14,1.71,2.09,2.66,4.69,2.72,7.39-.05,7.74-7.47,13.6-8.81,21.22-.91,5.2,1.28,10.68,5.08,14.35,3.79,3.67,9.01,5.66,14.26,6.2,5.25,.54,10.57-.28,15.67-1.63,5.13-1.36,10.17-3.28,14.48-6.38,4.3-3.1,7.83-7.47,9.21-12.59,1.38-5.12,.39-10.99-3.17-14.92-4.08-4.5-10.86-6.05-14.38-10.99-3.95-5.54-2.49-13.44-5.69-19.44-2.14-4.01-6.18-6.75-10.49-8.19-4.31-1.44-8.91-1.73-13.46-1.87-2.39-.07-4.85-.1-7.07,.77-2.22,.87-4.18,2.85-4.3,5.24-.12,2.39,1.41,3.12,1.41,3.12Z"/><path class="cls-11" d="M564.15,557.88H274.39c-.2,0-.4-.08-.54-.22-.14-.14-.22-.33-.22-.54s.08-.4,.22-.54c.14-.14,.34-.22,.54-.22h289.77c.21,0,.4,.08,.54,.22,.14,.14,.22,.34,.22,.54s-.08,.4-.22,.54-.33,.22-.54,.22Z"/></g></g></svg>